<svg width="217" height="56" viewBox="0 0 217 56" fill="none" xmlns="http://www.w3.org/2000/svg">
<rect width="217" height="56" rx="10" fill="#0F1515"/>
<path d="M111 12C111 8.68629 113.686 6 117 6H205C208.314 6 211 8.68629 211 12V44C211 47.3137 208.314 50 205 50H117C113.686 50 111 47.3137 111 44V12Z" fill="#182222"/>
<path d="M144.653 33H143.36L147.099 22.8182H148.371L152.11 33H150.817L147.775 24.429H147.695L144.653 33ZM145.13 29.0227H150.34V30.1165H145.13V29.0227ZM154.71 28.4062V33H153.537V25.3636H154.67V26.5568H154.77C154.949 26.169 155.22 25.8575 155.585 25.6222C155.95 25.3835 156.42 25.2642 156.997 25.2642C157.514 25.2642 157.966 25.3703 158.354 25.5824C158.742 25.7912 159.044 26.1094 159.259 26.5369C159.474 26.9612 159.582 27.4981 159.582 28.1477V33H158.409V28.2273C158.409 27.6274 158.253 27.16 157.942 26.8253C157.63 26.4872 157.202 26.3182 156.659 26.3182C156.284 26.3182 155.95 26.3994 155.655 26.5618C155.363 26.7242 155.133 26.9612 154.964 27.2727C154.795 27.5843 154.71 27.9621 154.71 28.4062ZM166.539 29.8778V25.3636H167.712V33H166.539V31.7074H166.459C166.28 32.0952 166.002 32.425 165.624 32.6967C165.246 32.9652 164.769 33.0994 164.192 33.0994C163.715 33.0994 163.291 32.995 162.919 32.7862C162.548 32.5741 162.257 32.2559 162.044 31.8317C161.832 31.4041 161.726 30.8655 161.726 30.2159V25.3636H162.9V30.1364C162.9 30.6932 163.055 31.1373 163.367 31.4688C163.682 31.8002 164.083 31.9659 164.57 31.9659C164.862 31.9659 165.158 31.8913 165.46 31.7422C165.765 31.593 166.02 31.3643 166.225 31.0561C166.434 30.7479 166.539 30.3551 166.539 29.8778ZM172.108 33.179C171.624 33.179 171.185 33.0878 170.791 32.9055C170.396 32.7199 170.083 32.4531 169.851 32.1051C169.619 31.7538 169.503 31.3295 169.503 30.8324C169.503 30.3949 169.589 30.0402 169.762 29.7685C169.934 29.4934 170.164 29.2779 170.453 29.1222C170.741 28.9664 171.059 28.8504 171.407 28.7741C171.758 28.6946 172.111 28.6316 172.466 28.5852C172.93 28.5256 173.306 28.4808 173.595 28.451C173.886 28.4179 174.098 28.3632 174.231 28.2869C174.367 28.2107 174.435 28.0781 174.435 27.8892V27.8494C174.435 27.3589 174.301 26.9777 174.032 26.706C173.767 26.4342 173.364 26.2983 172.824 26.2983C172.264 26.2983 171.825 26.4209 171.507 26.6662C171.188 26.9115 170.965 27.1733 170.835 27.4517L169.722 27.054C169.921 26.59 170.186 26.2287 170.517 25.9702C170.852 25.7083 171.217 25.526 171.611 25.4233C172.009 25.3172 172.4 25.2642 172.784 25.2642C173.03 25.2642 173.311 25.294 173.629 25.3537C173.951 25.41 174.261 25.5277 174.559 25.7067C174.861 25.8857 175.111 26.1558 175.31 26.517C175.509 26.8783 175.608 27.3622 175.608 27.9688V33H174.435V31.9659H174.375C174.296 32.1316 174.163 32.3089 173.977 32.4979C173.792 32.6868 173.545 32.8475 173.237 32.9801C172.928 33.1127 172.552 33.179 172.108 33.179ZM172.287 32.125C172.751 32.125 173.142 32.0339 173.46 31.8516C173.782 31.6693 174.024 31.4339 174.186 31.1456C174.352 30.8572 174.435 30.554 174.435 30.2358V29.1619C174.385 29.2216 174.276 29.2763 174.107 29.326C173.941 29.3724 173.749 29.4138 173.53 29.4503C173.315 29.4834 173.104 29.5133 172.899 29.5398C172.696 29.563 172.532 29.5829 172.406 29.5994C172.102 29.6392 171.816 29.7038 171.551 29.7933C171.289 29.8795 171.077 30.0104 170.915 30.1861C170.756 30.3584 170.676 30.5937 170.676 30.892C170.676 31.2997 170.827 31.608 171.129 31.8168C171.434 32.0223 171.82 32.125 172.287 32.125ZM178.923 22.8182V33H177.75V22.8182H178.923Z" fill="white"/>
<path d="M34.5738 22.8182H36.0454L39.5056 31.2699H39.6249L43.0851 22.8182H44.5567V33H43.4033V25.2642H43.3039L40.1221 33H39.0084L35.8266 25.2642H35.7272V33H34.5738V22.8182ZM50.0715 33.1591C49.3357 33.1591 48.701 32.9967 48.1673 32.6719C47.637 32.3438 47.2277 31.8864 46.9394 31.2997C46.6543 30.7098 46.5118 30.0237 46.5118 29.2415C46.5118 28.4593 46.6543 27.7699 46.9394 27.1733C47.2277 26.5734 47.6288 26.1061 48.1425 25.7713C48.6595 25.4332 49.2628 25.2642 49.9521 25.2642C50.3499 25.2642 50.7426 25.3305 51.1304 25.4631C51.5182 25.5956 51.8712 25.8111 52.1894 26.1094C52.5075 26.4044 52.7611 26.7955 52.95 27.2827C53.1389 27.7699 53.2334 28.3698 53.2334 29.0824V29.5795H47.347V28.5653H52.0402C52.0402 28.1345 51.954 27.75 51.7817 27.4119C51.6127 27.0739 51.3707 26.8071 51.0558 26.6115C50.7443 26.416 50.3764 26.3182 49.9521 26.3182C49.4848 26.3182 49.0805 26.4342 48.7391 26.6662C48.401 26.8949 48.1408 27.1932 47.9585 27.5611C47.7762 27.929 47.6851 28.3234 47.6851 28.7443V29.4205C47.6851 29.9972 47.7845 30.486 47.9834 30.8871C48.1856 31.2848 48.4656 31.5881 48.8236 31.7969C49.1816 32.0024 49.5975 32.1051 50.0715 32.1051C50.3797 32.1051 50.6581 32.062 50.9067 31.9759C51.1586 31.8864 51.3757 31.7538 51.558 31.5781C51.7403 31.3991 51.8811 31.1771 51.9806 30.9119L53.1141 31.2301C52.9948 31.6146 52.7942 31.9527 52.5125 32.2443C52.2308 32.5327 51.8828 32.758 51.4685 32.9205C51.0542 33.0795 50.5885 33.1591 50.0715 33.1591ZM56.1915 28.4062V33H55.0182V25.3636H56.1517V26.5568H56.2512C56.4301 26.169 56.7019 25.8575 57.0665 25.6222C57.4311 25.3835 57.9017 25.2642 58.4784 25.2642C58.9955 25.2642 59.4479 25.3703 59.8357 25.5824C60.2235 25.7912 60.5251 26.1094 60.7405 26.5369C60.9559 26.9612 61.0637 27.4981 61.0637 28.1477V33H59.8904V28.2273C59.8904 27.6274 59.7346 27.16 59.423 26.8253C59.1115 26.4872 58.6839 26.3182 58.1404 26.3182C57.7658 26.3182 57.4311 26.3994 57.1361 26.5618C56.8444 26.7242 56.6141 26.9612 56.445 27.2727C56.276 27.5843 56.1915 27.9621 56.1915 28.4062ZM68.6167 27.0739L67.5628 27.3722C67.4965 27.1965 67.3987 27.0258 67.2694 26.8601C67.1435 26.6911 66.9711 26.5518 66.7524 26.4425C66.5336 26.3331 66.2536 26.2784 65.9122 26.2784C65.4449 26.2784 65.0554 26.3861 64.7439 26.6016C64.4356 26.8137 64.2815 27.0838 64.2815 27.4119C64.2815 27.7036 64.3876 27.9339 64.5997 28.103C64.8118 28.272 65.1433 28.4129 65.594 28.5256L66.7275 28.804C67.4103 28.9697 67.9191 29.2232 68.2538 29.5646C68.5886 29.9027 68.7559 30.3385 68.7559 30.8722C68.7559 31.3097 68.63 31.7008 68.3781 32.0455C68.1295 32.3902 67.7815 32.6619 67.3341 32.8608C66.8866 33.0597 66.3663 33.1591 65.773 33.1591C64.9941 33.1591 64.3495 32.9901 63.839 32.652C63.3286 32.3139 63.0055 31.8201 62.8696 31.1705L63.9832 30.892C64.0893 31.303 64.2898 31.6113 64.5848 31.8168C64.8831 32.0223 65.2725 32.125 65.7531 32.125C66.3 32.125 66.7342 32.009 67.0557 31.777C67.3805 31.5417 67.5429 31.2599 67.5429 30.9318C67.5429 30.6667 67.4501 30.4446 67.2645 30.2656C67.0789 30.0833 66.7938 29.9474 66.4094 29.858L65.1366 29.5597C64.4373 29.3939 63.9236 29.1371 63.5954 28.7891C63.2706 28.4377 63.1082 27.9986 63.1082 27.4716C63.1082 27.0407 63.2292 26.6596 63.4711 26.3281C63.7164 25.9967 64.0495 25.7365 64.4704 25.5476C64.8947 25.3587 65.3753 25.2642 65.9122 25.2642C66.6679 25.2642 67.2612 25.4299 67.692 25.7614C68.1262 26.0928 68.4345 26.5303 68.6167 27.0739ZM72.7693 33.179C72.2854 33.179 71.8462 33.0878 71.4518 32.9055C71.0574 32.7199 70.7442 32.4531 70.5122 32.1051C70.2802 31.7538 70.1642 31.3295 70.1642 30.8324C70.1642 30.3949 70.2503 30.0402 70.4227 29.7685C70.595 29.4934 70.8254 29.2779 71.1137 29.1222C71.4021 28.9664 71.7203 28.8504 72.0683 28.7741C72.4196 28.6946 72.7726 28.6316 73.1272 28.5852C73.5912 28.5256 73.9674 28.4808 74.2558 28.451C74.5474 28.4179 74.7596 28.3632 74.8921 28.2869C75.028 28.2107 75.096 28.0781 75.096 27.8892V27.8494C75.096 27.3589 74.9617 26.9777 74.6933 26.706C74.4281 26.4342 74.0254 26.2983 73.4852 26.2983C72.925 26.2983 72.4859 26.4209 72.1677 26.6662C71.8495 26.9115 71.6258 27.1733 71.4965 27.4517L70.3829 27.054C70.5818 26.59 70.8469 26.2287 71.1784 25.9702C71.5131 25.7083 71.8777 25.526 72.2721 25.4233C72.6698 25.3172 73.0609 25.2642 73.4454 25.2642C73.6907 25.2642 73.9724 25.294 74.2906 25.3537C74.6121 25.41 74.922 25.5277 75.2203 25.7067C75.5219 25.8857 75.7721 26.1558 75.971 26.517C76.1698 26.8783 76.2693 27.3622 76.2693 27.9688V33H75.096V31.9659H75.0363C74.9568 32.1316 74.8242 32.3089 74.6386 32.4979C74.453 32.6868 74.2061 32.8475 73.8978 32.9801C73.5896 33.1127 73.2134 33.179 72.7693 33.179ZM72.9482 32.125C73.4123 32.125 73.8034 32.0339 74.1215 31.8516C74.443 31.6693 74.685 31.4339 74.8474 31.1456C75.0131 30.8572 75.096 30.554 75.096 30.2358V29.1619C75.0463 29.2216 74.9369 29.2763 74.7678 29.326C74.6021 29.3724 74.4099 29.4138 74.1911 29.4503C73.9757 29.4834 73.7652 29.5133 73.5597 29.5398C73.3576 29.563 73.1935 29.5829 73.0676 29.5994C72.7626 29.6392 72.4776 29.7038 72.2124 29.7933C71.9506 29.8795 71.7385 30.0104 71.5761 30.1861C71.417 30.3584 71.3374 30.5937 71.3374 30.892C71.3374 31.2997 71.4883 31.608 71.7899 31.8168C72.0948 32.0223 72.4809 32.125 72.9482 32.125ZM79.5841 22.8182V33H78.4108V22.8182H79.5841Z" fill="white"/>
</svg>
