<svg width="920" height="730" viewBox="0 0 920 730" fill="none" xmlns="http://www.w3.org/2000/svg">
<g id="Favicon-OS-branco-fundo-quadrado-preto">
<rect id="Rectangle 21" width="920" height="730" rx="50" fill="#000503"/>
<g id="os">
<path d="M292.837 580C259.651 580 228.433 571.569 199.184 554.706C170.498 537.843 147.155 513.392 129.155 481.353C111.718 449.314 103 410.81 103 365.843C103 319.752 111.718 280.686 129.155 248.647C147.155 216.608 170.498 192.157 199.184 175.294C228.433 158.431 259.651 150 292.837 150C326.586 150 357.804 158.431 386.491 175.294C415.177 192.157 438.239 216.608 455.676 248.647C473.675 280.686 482.675 319.752 482.675 365.843C482.675 410.81 473.675 449.314 455.676 481.353C438.239 513.392 415.177 537.843 386.491 554.706C357.804 571.569 326.586 580 292.837 580ZM292.837 522.667C328.274 522.667 356.679 508.333 378.053 479.667C399.99 450.438 410.959 412.497 410.959 365.843C410.959 318.627 399.99 280.405 378.053 251.176C356.679 221.948 328.274 207.333 292.837 207.333C257.964 207.333 229.558 221.948 207.622 251.176C185.685 280.405 174.716 318.627 174.716 365.843C174.716 412.497 185.685 450.438 207.622 479.667C229.558 508.333 257.964 522.667 292.837 522.667Z" fill="white"/>
<path d="M665.817 580C636.568 580 608.726 574.66 582.289 563.98C555.852 552.739 532.791 539.248 513.104 523.51L547.696 477.137C565.696 491.19 584.258 502.993 603.382 512.549C622.506 521.543 644.162 526.039 668.349 526.039C695.348 526.039 715.597 519.856 729.097 507.49C742.596 494.562 749.346 479.386 749.346 461.961C749.346 447.909 744.565 436.105 735.003 426.549C726.003 416.993 714.191 409.124 699.566 402.941C685.504 396.196 670.88 390.013 655.693 384.392C636.568 377.085 617.725 368.935 599.163 359.941C580.602 350.386 565.415 338.301 553.602 323.686C541.79 308.51 535.884 289.399 535.884 266.353C535.884 233.19 548.259 205.647 573.008 183.725C598.32 161.242 633.194 150 677.63 150C702.941 150 726.565 154.497 748.502 163.49C770.439 172.484 789.282 183.444 805.032 196.373L771.283 240.216C757.221 229.536 742.596 220.824 727.409 214.078C712.222 207.333 695.629 203.961 677.63 203.961C651.755 203.961 632.631 209.863 620.256 221.667C608.444 233.471 602.538 247.242 602.538 262.98C602.538 275.909 606.757 286.588 615.194 295.02C623.631 302.889 634.6 309.915 648.099 316.098C661.599 321.719 675.942 327.621 691.129 333.804C710.816 341.111 730.222 349.542 749.346 359.098C768.47 368.092 784.22 380.458 796.594 396.196C809.531 411.373 816 431.889 816 457.745C816 479.667 810.094 499.902 798.282 518.451C787.032 537 770.158 551.895 747.659 563.137C725.722 574.379 698.441 580 665.817 580Z" fill="white"/>
</g>
</g>
</svg>
