<svg width="920" height="730" viewBox="0 0 920 730" fill="none" xmlns="http://www.w3.org/2000/svg">
<g id="Favicon-OS-degrade-fundo-preto">
<rect id="Rectangle 20" width="920" height="730" rx="50" fill="#000503"/>
<g id="os">
<path d="M293.837 580C260.651 580 229.433 571.569 200.184 554.706C171.498 537.843 148.155 513.392 130.155 481.353C112.718 449.314 104 410.81 104 365.843C104 319.752 112.718 280.686 130.155 248.647C148.155 216.608 171.498 192.157 200.184 175.294C229.433 158.431 260.651 150 293.837 150C327.586 150 358.804 158.431 387.491 175.294C416.177 192.157 439.239 216.608 456.676 248.647C474.675 280.686 483.675 319.752 483.675 365.843C483.675 410.81 474.675 449.314 456.676 481.353C439.239 513.392 416.177 537.843 387.491 554.706C358.804 571.569 327.586 580 293.837 580ZM293.837 522.667C329.274 522.667 357.679 508.333 379.053 479.667C400.99 450.438 411.959 412.497 411.959 365.843C411.959 318.627 400.99 280.405 379.053 251.176C357.679 221.948 329.274 207.333 293.837 207.333C258.964 207.333 230.558 221.948 208.622 251.176C186.685 280.405 175.716 318.627 175.716 365.843C175.716 412.497 186.685 450.438 208.622 479.667C230.558 508.333 258.964 522.667 293.837 522.667Z" fill="url(#paint0_linear_454_24)"/>
<path d="M666.817 580C637.568 580 609.726 574.66 583.289 563.98C556.852 552.739 533.791 539.248 514.104 523.51L548.696 477.137C566.696 491.19 585.258 502.993 604.382 512.549C623.506 521.543 645.162 526.039 669.349 526.039C696.348 526.039 716.597 519.856 730.097 507.49C743.596 494.562 750.346 479.386 750.346 461.961C750.346 447.909 745.565 436.105 736.003 426.549C727.003 416.993 715.191 409.124 700.566 402.941C686.504 396.196 671.88 390.013 656.693 384.392C637.568 377.085 618.725 368.935 600.163 359.941C581.602 350.386 566.415 338.301 554.602 323.686C542.79 308.51 536.884 289.399 536.884 266.353C536.884 233.19 549.259 205.647 574.008 183.725C599.32 161.242 634.194 150 678.63 150C703.941 150 727.565 154.497 749.502 163.49C771.439 172.484 790.282 183.444 806.032 196.373L772.283 240.216C758.221 229.536 743.596 220.824 728.409 214.078C713.222 207.333 696.629 203.961 678.63 203.961C652.755 203.961 633.631 209.863 621.256 221.667C609.444 233.471 603.538 247.242 603.538 262.98C603.538 275.909 607.757 286.588 616.194 295.02C624.631 302.889 635.6 309.915 649.099 316.098C662.599 321.719 676.942 327.621 692.129 333.804C711.816 341.111 731.222 349.542 750.346 359.098C769.47 368.092 785.22 380.458 797.594 396.196C810.531 411.373 817 431.889 817 457.745C817 479.667 811.094 499.902 799.282 518.451C788.032 537 771.158 551.895 748.659 563.137C726.722 574.379 699.441 580 666.817 580Z" fill="url(#paint1_linear_454_24)"/>
</g>
</g>
<defs>
<linearGradient id="paint0_linear_454_24" x1="765" y1="149.87" x2="230.5" y2="609.37" gradientUnits="userSpaceOnUse">
<stop stop-color="#00F777"/>
<stop offset="1" stop-color="#00DD4B"/>
</linearGradient>
<linearGradient id="paint1_linear_454_24" x1="765" y1="149.87" x2="230.5" y2="609.37" gradientUnits="userSpaceOnUse">
<stop stop-color="#00F777"/>
<stop offset="1" stop-color="#00DD4B"/>
</linearGradient>
</defs>
</svg>
