<svg width="2639" height="431" viewBox="0 0 2639 431" fill="none" xmlns="http://www.w3.org/2000/svg">
<g id="logo-tektus-os-branca">
<g id="Tektus">
<path d="M114.299 421.569V72.2689H0V0H302.556V72.2689H188.257V421.569H114.299Z" fill="white"/>
<path d="M429.26 430C401.619 430 377.153 423.777 355.862 411.331C334.945 398.483 318.51 380.616 306.557 357.731C294.978 334.444 289.188 307.143 289.188 275.826V268.599C289.188 237.283 294.978 210.182 306.557 187.297C318.136 164.01 334.385 146.144 355.302 133.697C376.22 120.85 400.499 114.426 428.14 114.426C455.407 114.426 479.126 121.05 499.296 134.3C519.467 147.148 535.155 165.215 546.361 188.501C557.566 211.387 563.169 238.086 563.169 268.599V294.496H360.905C361.652 314.972 368.749 331.634 382.196 344.482C395.643 357.33 412.078 363.754 431.501 363.754C451.298 363.754 465.866 359.136 475.204 349.902C484.542 340.668 491.639 330.43 496.495 319.188L554.205 351.709C548.975 362.148 541.318 373.59 531.233 386.036C521.521 398.081 508.448 408.52 492.013 417.353C475.577 425.784 454.66 430 429.26 430ZM361.465 237.885H491.452C489.958 220.621 483.421 206.769 471.842 196.331C460.636 185.892 445.882 180.672 427.579 180.672C408.53 180.672 393.402 185.892 382.196 196.331C370.99 206.769 364.08 220.621 361.465 237.885Z" fill="white"/>
<path d="M626.005 421.569V0H696.601V233.067H706.686L798.574 122.857H890.461L762.155 267.395L894.944 421.569H804.177L706.686 302.927H696.601V421.569H626.005Z" fill="white"/>
<path d="M1048.72 421.569C1030.41 421.569 1015.47 415.546 1003.89 403.501C992.688 391.055 987.085 374.594 987.085 354.118V185.49H917.609V122.857H987.085V30.1121H1057.68V122.857H1133.88V185.49H1057.68V340.868C1057.68 352.913 1062.91 358.936 1073.37 358.936H1127.16V421.569H1048.72Z" fill="white"/>
<path d="M1303.68 426.387C1282.01 426.387 1262.96 421.167 1246.53 410.728C1230.47 399.888 1217.95 385.033 1208.99 366.163C1200.03 347.292 1195.54 325.612 1195.54 301.12V122.857H1266.14V295.098C1266.14 317.582 1271.18 334.444 1281.27 345.686C1291.73 356.928 1306.48 362.549 1325.53 362.549C1347.19 362.549 1364 354.921 1375.96 339.664C1387.91 324.006 1393.89 302.325 1393.89 274.622V122.857H1464.48V421.569H1395.01V382.423H1384.92C1380.44 392.46 1372.03 402.297 1359.71 411.933C1347.38 421.569 1328.71 426.387 1303.68 426.387Z" fill="white"/>
<path d="M1658.46 430C1622.23 430 1592.53 421.569 1569.37 404.706C1546.22 387.843 1532.21 363.754 1527.35 332.437L1592.35 314.37C1594.96 328.422 1599.26 339.463 1605.23 347.493C1611.58 355.523 1619.24 361.345 1628.2 364.958C1637.54 368.17 1647.63 369.776 1658.46 369.776C1674.9 369.776 1687.03 366.765 1694.88 360.742C1702.72 354.318 1706.64 346.489 1706.64 337.255C1706.64 328.021 1702.91 320.994 1695.44 316.176C1687.97 310.957 1676.02 306.741 1659.58 303.529L1643.89 300.518C1624.47 296.503 1606.73 291.083 1590.67 284.258C1574.6 277.031 1561.72 267.194 1552.01 254.748C1542.29 242.302 1537.44 226.242 1537.44 206.569C1537.44 176.858 1547.52 154.174 1567.69 138.515C1587.86 122.456 1614.38 114.426 1647.25 114.426C1678.26 114.426 1704.03 121.853 1724.57 136.709C1745.12 151.564 1758.56 171.036 1764.91 195.126L1699.36 216.807C1696.37 201.55 1690.21 190.71 1680.87 184.286C1671.91 177.862 1660.7 174.65 1647.25 174.65C1633.81 174.65 1623.54 177.26 1616.44 182.479C1609.34 187.297 1605.79 194.122 1605.79 202.955C1605.79 212.591 1609.53 219.818 1617 224.636C1624.47 229.052 1634.55 232.465 1647.25 234.874L1662.94 237.885C1683.86 241.9 1702.72 247.32 1719.53 254.146C1736.71 260.57 1750.16 270.005 1759.87 282.451C1769.96 294.496 1775 310.957 1775 331.835C1775 363.151 1764.35 387.442 1743.06 404.706C1722.15 421.569 1693.94 430 1658.46 430Z" fill="white"/>
</g>
<g id="os">
<path d="M2115.84 430.13C2082.65 430.13 2051.43 421.699 2022.18 404.836C1993.5 387.973 1970.15 363.522 1952.16 331.483C1934.72 299.444 1926 260.94 1926 215.973C1926 169.882 1934.72 130.816 1952.16 98.777C1970.15 66.7377 1993.5 42.2867 2022.18 25.424C2051.43 8.56126 2082.65 0.129883 2115.84 0.129883C2149.59 0.129883 2180.8 8.56126 2209.49 25.424C2238.18 42.2867 2261.24 66.7377 2278.68 98.777C2296.68 130.816 2305.67 169.882 2305.67 215.973C2305.67 260.94 2296.68 299.444 2278.68 331.483C2261.24 363.522 2238.18 387.973 2209.49 404.836C2180.8 421.699 2149.59 430.13 2115.84 430.13ZM2115.84 372.797C2151.27 372.797 2179.68 358.463 2201.05 329.797C2222.99 300.568 2233.96 262.627 2233.96 215.973C2233.96 168.757 2222.99 130.535 2201.05 101.306C2179.68 72.0776 2151.27 57.4632 2115.84 57.4632C2080.96 57.4632 2052.56 72.0776 2030.62 101.306C2008.68 130.535 1997.72 168.757 1997.72 215.973C1997.72 262.627 2008.68 300.568 2030.62 329.797C2052.56 358.463 2080.96 372.797 2115.84 372.797Z" fill="white"/>
<path d="M2488.82 430.13C2459.57 430.13 2431.73 424.79 2405.29 414.11C2378.85 402.868 2355.79 389.378 2336.1 373.64L2370.7 327.267C2388.7 341.319 2407.26 353.123 2426.38 362.679C2445.51 371.672 2467.16 376.169 2491.35 376.169C2518.35 376.169 2538.6 369.986 2552.1 357.62C2565.6 344.692 2572.35 329.516 2572.35 312.091C2572.35 298.038 2567.56 286.234 2558 276.679C2549 267.123 2537.19 259.254 2522.57 253.071C2508.5 246.326 2493.88 240.143 2478.69 234.522C2459.57 227.215 2440.73 219.065 2422.16 210.071C2403.6 200.516 2388.41 188.431 2376.6 173.816C2364.79 158.64 2358.88 139.529 2358.88 116.483C2358.88 83.3194 2371.26 55.7769 2396.01 33.8554C2421.32 11.3717 2456.19 0.129883 2500.63 0.129883C2525.94 0.129883 2549.57 4.62662 2571.5 13.6201C2593.44 22.6135 2612.28 33.5743 2628.03 46.5024L2594.28 90.3456C2580.22 79.6658 2565.6 70.9534 2550.41 64.2083C2535.22 57.4632 2518.63 54.0907 2500.63 54.0907C2474.76 54.0907 2455.63 59.9926 2443.26 71.7966C2431.44 83.6005 2425.54 97.3717 2425.54 113.11C2425.54 126.038 2429.76 136.718 2438.19 145.15C2446.63 153.019 2457.6 160.045 2471.1 166.228C2484.6 171.849 2498.94 177.751 2514.13 183.934C2533.82 191.241 2553.22 199.672 2572.35 209.228C2591.47 218.221 2607.22 230.587 2619.59 246.326C2632.53 261.502 2639 282.019 2639 307.875C2639 329.797 2633.09 350.032 2621.28 368.581C2610.03 387.13 2593.16 402.025 2570.66 413.267C2548.72 424.509 2521.44 430.13 2488.82 430.13Z" fill="white"/>
</g>
</g>
</svg>
